<?xml version="1.0" standalone="no"?>
<!DOCTYPE svg PUBLIC "-//W3C//DTD SVG 20010904//EN"
 "http://www.w3.org/TR/2001/REC-SVG-20010904/DTD/svg10.dtd">
<svg version="1.0" xmlns="http://www.w3.org/2000/svg"
 width="552.000000pt" height="552.000000pt" viewBox="0 0 552.000000 552.000000"
 preserveAspectRatio="xMidYMid meet">
<metadata>
Created by potrace 1.12, written by Peter Selinger 2001-2015
</metadata>
<g transform="translate(0.000000,552.000000) scale(0.100000,-0.100000)"
fill="#000000" stroke="none">
<path d="M1466 4018 c-3 -12 -11 -68 -17 -123 -6 -55 -13 -103 -16 -107 -2 -5
-240 -8 -529 -8 l-524 0 0 -85 0 -85 515 0 516 0 -7 -37 c-3 -21 -15 -78 -25
-128 -10 -49 -19 -90 -19 -92 0 -2 -189 -3 -420 -3 l-420 0 0 -830 0 -830 90
0 90 0 0 745 0 745 815 0 815 0 0 -624 0 -623 -25 -27 c-24 -26 -25 -26 -170
-26 -80 0 -145 -2 -145 -4 0 -1 4 -16 9 -32 5 -16 17 -55 26 -88 l16 -58 157
4 c212 6 264 29 300 137 9 24 12 241 12 772 l0 739 -480 0 c-264 0 -480 3
-480 6 0 6 36 191 45 232 l5 22 525 0 525 0 0 85 0 85 -510 0 c-458 0 -510 2
-510 16 0 8 5 58 11 111 13 111 16 108 -79 118 -36 4 -71 9 -78 12 -8 3 -15
-5 -18 -19z"/>
<path d="M3819 3903 c-81 -167 -180 -319 -282 -432 l-76 -84 57 -69 57 -69 50
53 c28 29 65 71 83 93 l32 40 0 -92 c0 -91 -27 -467 -35 -490 -3 -10 -40 -13
-140 -13 l-135 0 0 -80 0 -80 124 0 c69 0 127 -3 129 -7 6 -10 -34 -283 -68
-462 -14 -74 -25 -138 -25 -143 0 -4 272 -8 605 -8 477 0 605 -3 605 -12 0
-64 -48 -136 -114 -171 -38 -20 -58 -22 -249 -25 -189 -3 -208 -5 -204 -20 2
-10 13 -45 23 -79 l19 -63 147 0 c167 0 278 13 354 41 103 39 177 144 190 267
l7 61 111 3 111 3 3 78 3 77 -107 0 -106 0 7 138 c4 75 10 178 14 227 l6 90
95 2 c52 1 103 2 113 2 15 1 17 12 17 81 l0 79 -107 3 -108 3 0 70 c0 39 3
172 8 297 l7 228 -644 2 -645 3 67 102 67 101 638 1 637 1 0 85 0 85 -585 0
c-322 0 -585 4 -585 9 0 4 16 43 36 86 20 42 32 81 27 85 -4 4 -35 12 -68 19
-33 6 -69 14 -80 16 -17 5 -29 -14 -86 -132z m1037 -835 c-4 -116 -9 -215 -12
-220 -3 -4 -221 -8 -485 -8 -377 0 -479 3 -479 13 0 6 7 98 15 202 8 105 15
198 15 208 0 16 29 17 477 17 l476 0 -7 -212z m-20 -486 c-3 -53 -9 -157 -12
-229 l-7 -133 -513 0 c-283 0 -514 3 -514 8 0 4 5 25 10 47 5 22 20 118 35
214 14 95 28 178 31 182 3 5 224 9 491 9 l486 -1 -7 -97z"/>
<path d="M4192 3177 l-52 -53 97 -71 c54 -39 125 -96 159 -126 l61 -56 56 57
57 58 -37 35 c-76 71 -260 209 -280 209 -5 0 -32 -24 -61 -53z"/>
<path d="M4170 2585 l-54 -54 30 -23 c69 -55 152 -126 216 -187 l69 -65 57 58
57 57 -72 69 c-69 67 -232 200 -243 200 -3 0 -30 -25 -60 -55z"/>
<path d="M3022 3918 c-34 -33 -62 -61 -62 -63 0 -2 42 -32 93 -69 51 -36 139
-107 196 -158 l104 -92 58 64 c33 36 59 68 59 71 0 15 -312 268 -370 299 -11
6 -32 -8 -78 -52z"/>
<path d="M2981 3296 l-63 -63 97 -73 c52 -39 140 -112 194 -160 l98 -88 64 65
64 64 -36 32 c-20 18 -68 59 -106 92 -61 54 -210 171 -239 188 -6 3 -39 -22
-73 -57z"/>
<path d="M1765 3022 c-21 -48 -55 -122 -76 -164 l-39 -78 -136 0 -135 0 -11
32 c-7 18 -40 90 -74 160 l-63 127 -78 -30 c-43 -17 -79 -32 -81 -33 -1 -2 16
-34 39 -72 37 -60 89 -166 89 -179 0 -3 -63 -5 -140 -5 l-140 0 0 -80 0 -80
255 0 255 0 0 -135 0 -135 -295 0 -295 0 0 -80 0 -80 293 -2 292 -3 3 -227 2
-228 85 0 85 0 0 230 0 230 295 0 295 0 0 80 0 80 -295 0 -295 0 0 135 0 135
255 0 255 0 0 80 0 80 -140 0 c-77 0 -140 3 -140 6 0 4 15 32 34 63 36 60 108
201 103 201 -2 0 -40 13 -84 30 l-81 29 -37 -87z"/>
<path d="M3307 2603 c-3 -5 -24 -54 -46 -110 -59 -149 -159 -370 -246 -543
-42 -84 -73 -156 -68 -160 11 -11 155 -71 159 -67 7 7 143 296 188 400 60 139
166 407 166 421 0 6 -30 22 -67 36 -37 14 -71 26 -74 28 -4 2 -9 -1 -12 -5z"/>
</g>
</svg>
